<svg xmlns="http://www.w3.org/2000/svg" xmlns:xlink="http://www.w3.org/1999/xlink" id="Layer_1" x="0px" y="0px" viewBox="0 0 380.3 64.3" style="enable-background:new 0 0 380.3 64.3;" xml:space="preserve"><style type="text/css">path,polygon{fill:#5C5D5F} .orange{fill:#f60}</style><g>	<g>		<path d="M79.9,17.1h5.2v33.5h-5.2V17.1z"></path>	</g>	<g>		<path d="M93.8,17.1H99V22c3.5-3.1,8.1-5.9,14.1-5.9c4.2,0,13.8,1,13.8,12.4v22.1h-5.2V29.5c0.1-7.9-5.6-9-9.3-9   c-5.7,0-10.4,3.5-13.5,6.7v23.4h-5.2L93.8,17.1L93.8,17.1z"></path>	</g>	<g>		<polygon points="166.1,21.6 166.1,17.2 135.5,17.2 135.4,50.6 140.6,50.6 140.6,35 166.1,35 166.1,30.6 140.6,30.6 140.6,21.6      "></polygon>	</g>	<g>		<path d="M276,17.2v4.4h-13.2v29h-5.2v-29h-12.1v-4.4C245.5,17.2,276,17.2,276,17.2z"></path>	</g>	<g>		<path d="M175.8,17.1h5.2v33.5h-5.2V17.1z"></path>	</g>	<g>		<path d="M190.3,17.1h5.2V22c3.5-3.1,8.1-5.9,14.1-5.9c4.2,0,13.8,1,13.8,12.4v22.1h-5.2V29.5c0.1-7.9-5.6-9-9.3-9   c-5.7,0-10.4,3.5-13.4,6.7v23.4h-5.2L190.3,17.1L190.3,17.1z"></path>	</g>	<g>		<path d="M232.3,17.1h5.2v33.5h-5.2V17.1z"></path>	</g>	<g>		<path d="M283.7,17.1h5.2v33.5h-5.2V17.1z"></path>	</g>	<g>		<path d="M297.4,17.1h5.6L314.3,45l11.4-27.9h5.6L317,50.6h-5.2L297.4,17.1z"></path>	</g>	<g>		<path d="M368.2,43.6c-3.1,3.6-6.1,8-16.4,8c-10.2,0-17.1-7.7-17.1-18c0-10.6,7.2-17.6,16.5-17.6c9.6,0,18,5.6,17.8,18.8h-29.6   c0.5,6.3,5,12.3,12.9,12.3c7.8,0,10.4-3.9,12.3-6.5L368.2,43.6z M363.9,30.5c-0.9-5.5-5.2-10-12.3-10c-6.9,0-10.7,3.8-12.1,10   H363.9z"></path>	</g></g><g>	<g>		<path class="orange" d="M32.2,0c-6.9,0-12.5,5.6-12.5,12.5S25.3,25,32.2,25s12.5-5.6,12.5-12.5S39.1,0,32.2,0z M32.2,17.8   c-2.9,0-5.3-2.4-5.3-5.3s2.4-5.3,5.3-5.3s5.3,2.4,5.3,5.3C37.4,15.4,35.1,17.8,32.2,17.8z"></path>		<path class="orange" d="M32.2,39.2c-6.9,0-12.5,5.6-12.5,12.5s5.6,12.5,12.5,12.5s12.5-5.6,12.5-12.5C44.7,44.9,39.1,39.2,32.2,39.2z    M32.2,57.1c-2.9,0-5.3-2.4-5.3-5.3c0-2.9,2.4-5.3,5.3-5.3s5.3,2.4,5.3,5.3C37.4,54.7,35.1,57.1,32.2,57.1z"></path>		<path class="orange" d="M51.8,19.6c-3.4,0-6.6,1.4-9,3.8L42,24.3c-2.6,2.7-6.1,4.2-9.8,4.2S25,27,22.4,24.3l-0.8-0.8   c-2.4-2.5-5.6-3.8-9-3.8C5.6,19.6,0,25.3,0,32.2s5.6,12.5,12.5,12.5c3.4,0,6.6-1.4,9-3.8l0.8-0.8c2.6-2.7,6.1-4.2,9.8-4.2   s7.2,1.5,9.8,4.2l0.8,0.8c2.4,2.5,5.6,3.8,9,3.8c6.9,0,12.5-5.6,12.5-12.5C64.3,25.3,58.7,19.6,51.8,19.6z M12.5,37.4   c-2.9,0-5.3-2.4-5.3-5.3s2.4-5.3,5.3-5.3s5.3,2.4,5.3,5.3C17.8,35.1,15.5,37.4,12.5,37.4z M51.8,37.4c-2.9,0-5.3-2.4-5.3-5.3   s2.4-5.3,5.3-5.3c2.9,0,5.3,2.4,5.3,5.3C57.1,35.1,54.7,37.4,51.8,37.4z"></path>	</g></g></svg>
